<?xml version="1.0" encoding="UTF-8"?>
<svg id="Layer_2" data-name="Layer 2" xmlns="http://www.w3.org/2000/svg" viewBox="0 0 78.69 100.69">
  <defs>
    <style>
      .cls-1, .cls-2 {
        fill: #0068b1;
      }

      .cls-2 {
        fill-rule: evenodd;
      }
    </style>
  </defs>
  <g id="Layer_1-2" data-name="Layer 1">
    <g>
      <path class="cls-2" d="m0,8.78s36.88-19.8,77.96.06c.12,34.61.03,50.24-.02,50.66-.05.41-1.19,9.8-7,16.01-6.06,7.49-26.95,15.23-29.56,16.58-1.01.49-2.06,1.22-2.06,1.22,0,0-.31-.25-2.3-1.22-2-.97-21.93-8.84-28.47-15.6C1.64,70.36.15,58.76.18,58.33l-.18-49.54h0Zm12.74,56.88h11.26v-26.6l21.97,26.6h19.31V29.3h-11.26v26.36l-21.97-26.36H12.74v36.36h0ZM4.78,29.89l.02,26.27s-.13,8.65,6.99,17.36c6.59,6.11,23.68,12.75,25.47,13.66,1.79.91,2.06,1.14,2.06,1.14,0,0,.25-.2,1.88-1.1,2.34-1.25,17.91-6.25,26.34-14.83,5.87-7.26,5.98-15.32,5.98-15.32,0,0-.01-12.99-.12-45.39C24.64,4.85,4.78,29.89,4.78,29.89Z"/>
    </g>
  </g>
</svg>