<?xml version="1.0" encoding="UTF-8"?>
<svg id="Layer_2" data-name="Layer 2" xmlns="http://www.w3.org/2000/svg" viewBox="0 0 419.36 93.69">
  <defs>
    <style>
      .cls-1, .cls-2 {
        fill: #ffffff;
      }

      .cls-2 {
        fill-rule: evenodd;
      }
    </style>
  </defs>
  <g id="Layer_1-2" data-name="Layer 1">
    <g>
      <g>
        <path class="cls-2" d="m411.05,25.19c4.5,0,8.15-3.66,8.15-8.18s-3.65-8.18-8.15-8.18-8.15,3.66-8.15,8.18,3.65,8.18,8.15,8.18h0ZM192.26,8.83h52.69c7.99,0,14.53,6.09,14.53,14.11v31.4c0,8.01-6.54,13.63-14.53,13.63h-52.69c-7.99,0-14.53-6.56-14.53-14.58v-29.98c0-8.02,6.54-14.58,14.53-14.58h0Zm163.29,48.83l-5.82,10.31h-20.86l33.36-59.14h23.59l33.36,59.14h-20.85l-5.82-10.31h-36.97Zm29.51-13.23l-11.02-19.54-11.02,19.54h22.05Zm-300,23.54V8.83h31.41l35.74,42.87V8.83h18.32v59.14h-31.41l-35.74-43.27v43.27h-18.32ZM260.26,8.83l33.36,59.14h23.59l33.36-59.14h-20.86l-24.3,43.08-24.31-43.08h-20.85Zm-61.46,15.39c-1.79,0-3.26,1.47-3.26,3.27v21.82c0,1.8,1.47,3.27,3.26,3.27h39.63c1.78,0,3.26-1.48,3.26-3.27v-21.82c0-1.79-1.47-3.27-3.26-3.27h-39.63Zm210.66-7.84v-2.07h1.28c.67,0,1.07,0,1.2.03.27.05.47.15.62.32.15.17.22.39.22.67,0,.25-.06.45-.17.61-.11.16-.27.28-.46.35-.2.07-.69.1-1.48.1h-1.21Zm-1.64,4.71v-8.17h3.46c.87,0,1.5.07,1.9.22.39.15.71.41.95.78.24.38.35.8.35,1.29,0,.61-.18,1.12-.54,1.52-.36.4-.9.65-1.61.75.36.21.65.44.88.69.23.25.54.69.93,1.33l.99,1.59h-1.96l-1.19-1.78c-.42-.64-.71-1.03-.87-1.2-.16-.17-.32-.28-.49-.34-.17-.06-.45-.09-.83-.09h-.33v3.41h-1.64Zm3.24,2.33c-3.53,0-6.4-2.87-6.4-6.42s2.86-6.42,6.4-6.42,6.4,2.87,6.4,6.42-2.86,6.42-6.4,6.42Z"/>
        <g>
          <path class="cls-1" d="m87.64,88.82v4.51h-2.6v-12.69h5.62c1.33,0,2.33.35,3.02,1.04.69.69,1.03,1.71,1.03,3.05s-.34,2.32-1,3.03-1.63,1.06-2.87,1.06h-3.19Zm.02-2.3h2.52c.68,0,1.18-.14,1.48-.44.31-.29.46-.76.46-1.4,0-.6-.15-1.06-.46-1.37-.3-.31-.76-.47-1.36-.47h-2.65v3.67Z"/>
          <path class="cls-1" d="m104.29,93.33v-12.69h6.13c1.38,0,2.4.3,3.06.89.66.59.99,1.5.99,2.71,0,.78-.16,1.42-.48,1.94-.32.52-.79.87-1.39,1.06.55.19.94.49,1.17.9s.37,1.03.4,1.88l.05,1.5v.05c.02.76.18,1.22.49,1.38v.39h-2.85c-.09-.18-.16-.4-.21-.66-.05-.26-.08-.57-.09-.93l-.03-1.34c-.03-.79-.18-1.32-.44-1.59-.27-.28-.75-.41-1.44-.41h-2.75v4.94h-2.6Zm2.6-7.14h3.06c.66,0,1.15-.13,1.46-.41.31-.27.47-.7.47-1.27s-.15-.97-.46-1.25c-.3-.29-.75-.43-1.36-.43h-3.17v3.36Z"/>
          <path class="cls-1" d="m123.8,87c0-2.05.56-3.68,1.67-4.88s2.61-1.8,4.5-1.8,3.39.6,4.51,1.81,1.68,2.83,1.68,4.88-.56,3.67-1.68,4.87c-1.12,1.21-2.62,1.81-4.51,1.81s-3.39-.6-4.5-1.81c-1.11-1.21-1.67-2.83-1.67-4.87Zm2.65,0c0,1.39.31,2.48.93,3.25.62.77,1.48,1.16,2.59,1.16s1.99-.39,2.62-1.16c.62-.77.94-1.86.94-3.25s-.31-2.48-.94-3.25c-.62-.77-1.5-1.16-2.62-1.16s-1.97.38-2.59,1.15c-.62.77-.93,1.85-.93,3.26Z"/>
          <path class="cls-1" d="m145.74,93.33v-12.69h8.82v2.2h-6.26v2.88h5.48v2.21h-5.48v5.4h-2.57Z"/>
          <path class="cls-1" d="m163.78,93.33v-12.69h9.18v2.2h-6.62v2.71h6.05v2.17h-6.05v3.26h6.93v2.34h-9.49Z"/>
          <path class="cls-1" d="m182.19,89.41h2.57c.1.7.38,1.21.85,1.55s1.15.5,2.04.5c.76,0,1.32-.13,1.71-.41.38-.27.57-.67.57-1.2,0-.77-1.1-1.41-3.3-1.91l-.08-.02c-.06-.01-.15-.03-.27-.06-1.18-.26-2.02-.55-2.52-.87-.45-.29-.79-.67-1.02-1.16-.24-.48-.35-1.06-.35-1.72,0-1.24.42-2.18,1.25-2.84s2.04-.99,3.62-.99c1.48,0,2.63.35,3.46,1.05.83.7,1.27,1.69,1.32,2.96h-2.5c-.05-.61-.28-1.08-.71-1.4-.42-.32-1.03-.48-1.81-.48-.68,0-1.21.13-1.58.4-.37.27-.55.65-.55,1.14,0,.67.72,1.17,2.16,1.51.39.09.69.16.91.21.92.24,1.58.42,1.96.55.39.13.72.28,1.01.44.51.29.9.67,1.16,1.14.26.47.39,1.04.39,1.7,0,1.32-.44,2.34-1.33,3.07-.89.73-2.14,1.09-3.75,1.09s-2.84-.37-3.74-1.11c-.9-.74-1.39-1.79-1.46-3.16Z"/>
          <path class="cls-1" d="m201.76,89.41h2.57c.1.7.38,1.21.85,1.55s1.15.5,2.04.5c.76,0,1.32-.13,1.71-.41.38-.27.58-.67.58-1.2,0-.77-1.1-1.41-3.31-1.91l-.08-.02c-.06-.01-.15-.03-.27-.06-1.18-.26-2.02-.55-2.52-.87-.45-.29-.79-.67-1.02-1.16-.24-.48-.35-1.06-.35-1.72,0-1.24.42-2.18,1.25-2.84s2.04-.99,3.62-.99c1.48,0,2.63.35,3.46,1.05.83.7,1.27,1.69,1.32,2.96h-2.5c-.05-.61-.28-1.08-.71-1.4-.42-.32-1.03-.48-1.81-.48-.68,0-1.21.13-1.58.4-.37.27-.55.65-.55,1.14,0,.67.72,1.17,2.16,1.51.39.09.69.16.91.21.92.24,1.58.42,1.96.55.39.13.72.28,1.01.44.52.29.9.67,1.16,1.14s.39,1.04.39,1.7c0,1.32-.44,2.34-1.33,3.07-.89.73-2.14,1.09-3.75,1.09s-2.84-.37-3.74-1.11c-.9-.74-1.39-1.79-1.46-3.16Z"/>
          <path class="cls-1" d="m221.67,93.33v-12.69h2.6v12.69h-2.6Z"/>
          <path class="cls-1" d="m233.96,87c0-2.05.56-3.68,1.67-4.88s2.61-1.8,4.5-1.8,3.39.6,4.51,1.81,1.68,2.83,1.68,4.88-.56,3.67-1.68,4.87c-1.12,1.21-2.62,1.81-4.51,1.81s-3.39-.6-4.5-1.81c-1.11-1.21-1.67-2.83-1.67-4.87Zm2.65,0c0,1.39.31,2.48.93,3.25.62.77,1.48,1.16,2.59,1.16s1.99-.39,2.62-1.16c.62-.77.94-1.86.94-3.25s-.31-2.48-.94-3.25c-.62-.77-1.5-1.16-2.62-1.16s-1.97.38-2.59,1.15c-.62.77-.93,1.85-.93,3.26Z"/>
          <path class="cls-1" d="m255.9,93.33v-12.69h2.72l5.13,8.72v-8.72h2.57v12.69h-2.69l-5.17-8.72v8.72h-2.57Z"/>
          <path class="cls-1" d="m279.64,80.65h3l4.56,12.69h-2.73l-.86-2.61h-4.9l-.83,2.61h-2.74l4.5-12.69Zm1.51,2.54l-1.75,5.4h3.51l-1.76-5.4Z"/>
          <path class="cls-1" d="m296.03,93.33v-12.69h2.6v10.34h6.17v2.34h-8.77Z"/>
          <path class="cls-1" d="m333.82,93.33v-10.42h-3.75v-2.26h10.08v2.26h-3.72v10.42h-2.6Z"/>
          <path class="cls-1" d="m348.61,87c0-2.05.56-3.68,1.67-4.88s2.61-1.8,4.5-1.8,3.39.6,4.51,1.81,1.68,2.83,1.68,4.88-.56,3.67-1.68,4.87c-1.12,1.21-2.62,1.81-4.51,1.81s-3.39-.6-4.5-1.81c-1.11-1.21-1.67-2.83-1.67-4.87Zm2.65,0c0,1.39.31,2.48.93,3.25.62.77,1.48,1.16,2.59,1.16s1.99-.39,2.62-1.16c.62-.77.94-1.86.94-3.25s-.31-2.48-.94-3.25c-.62-.77-1.5-1.16-2.62-1.16s-1.97.38-2.59,1.15c-.62.77-.93,1.85-.93,3.26Z"/>
          <path class="cls-1" d="m370,87c0-2.05.56-3.68,1.67-4.88s2.61-1.8,4.5-1.8,3.39.6,4.51,1.81,1.68,2.83,1.68,4.88-.56,3.67-1.68,4.87c-1.12,1.21-2.62,1.81-4.51,1.81s-3.39-.6-4.5-1.81c-1.11-1.21-1.67-2.83-1.67-4.87Zm2.65,0c0,1.39.31,2.48.93,3.25.62.77,1.48,1.16,2.59,1.16s1.99-.39,2.62-1.16c.62-.77.94-1.86.94-3.25s-.31-2.48-.94-3.25c-.62-.77-1.5-1.16-2.62-1.16s-1.97.38-2.59,1.15c-.62.77-.93,1.85-.93,3.26Z"/>
          <path class="cls-1" d="m391.94,93.33v-12.69h2.6v10.34h6.17v2.34h-8.77Z"/>
          <path class="cls-1" d="m409.08,89.41h2.57c.1.7.38,1.21.85,1.55.47.34,1.15.5,2.04.5.76,0,1.32-.13,1.71-.41.38-.27.57-.67.57-1.2,0-.77-1.1-1.41-3.3-1.91l-.08-.02c-.06-.01-.15-.03-.27-.06-1.18-.26-2.02-.55-2.53-.87-.45-.29-.79-.67-1.02-1.16-.24-.48-.35-1.06-.35-1.72,0-1.24.42-2.18,1.25-2.84.83-.66,2.04-.99,3.62-.99,1.47,0,2.63.35,3.46,1.05.83.7,1.27,1.69,1.32,2.96h-2.5c-.05-.61-.28-1.08-.7-1.4-.42-.32-1.03-.48-1.81-.48-.68,0-1.21.13-1.58.4-.37.27-.55.65-.55,1.14,0,.67.72,1.17,2.15,1.51.39.09.69.16.91.21.92.24,1.58.42,1.96.55.39.13.72.28,1.01.44.51.29.9.67,1.16,1.14s.39,1.04.39,1.7c0,1.32-.44,2.34-1.33,3.07-.89.73-2.14,1.09-3.75,1.09s-2.84-.37-3.74-1.11c-.9-.74-1.39-1.79-1.46-3.16Z"/>
        </g>
      </g>
      <path class="cls-2" d="m0,8.78s36.88-19.8,77.96.06c.12,34.61.03,50.24-.02,50.66-.05.41-1.19,9.8-7,16.01-6.06,7.49-26.95,15.23-29.56,16.58-1.01.49-2.06,1.22-2.06,1.22,0,0-.31-.25-2.3-1.22-2-.97-21.93-8.84-28.47-15.6C1.64,70.36.15,58.76.18,58.33l-.18-49.54h0Zm12.74,56.88h11.26v-26.6l21.97,26.6h19.31V29.3h-11.26v26.36l-21.97-26.36H12.74v36.36h0ZM4.78,29.89l.02,26.27s-.13,8.65,6.99,17.36c6.59,6.11,23.68,12.75,25.47,13.66,1.79.91,2.06,1.14,2.06,1.14,0,0,.25-.2,1.88-1.1,2.34-1.25,17.91-6.25,26.34-14.83,5.87-7.26,5.98-15.32,5.98-15.32,0,0-.01-12.99-.12-45.39C24.64,4.85,4.78,29.89,4.78,29.89Z"/>
    </g>
  </g>
</svg>